
        <svg xmlns="http://www.w3.org/2000/svg" xmlns:xlink="http://www.w3.org/1999/xlink" version="1.1" width="3300" height="2001.4566449690321" viewBox="0 0 3300 2001.4566449690321">
			
			<g transform="scale(15) translate(10, 10)">
				<defs id="SvgjsDefs1878"/><g id="SvgjsG1879" featureKey="nameFeature-0" transform="matrix(4.045307555731887,0,0,4.045307555731887,-0.000003857905917865646,-48.38187466296369)" fill="#fff"><path d="M5.64 11.96 l11.6 21.8 l4.84 -8.96 l2.32 15.2 l1.44 0 l-3 -19.68 l-5.6 10.36 l-9.96 -18.72 l-1.64 0 z M18.4 22.72 l-1.88 3.48 l0.84 1.52 l2.64 -5 l3.52 -6.56 l0.12 -0.28 l1.32 -2.44 l0.96 0 l0.12 0.96 l3 19.52 l0.68 4.6 l-1.32 0 l-3.04 -19.8 l-0.36 -2.4 l-1.12 2.12 l3.2 20.96 l-0.04 0 l0.12 0.6 l4.24 0 l-4.24 -28.04 l-3.08 0 z M15.96 34.12 l-11.48 -21.64 l-0.24 -0.4 l-4.24 27.92 l7 0 l1.28 -8.28 l-0.84 -1.56 l-0.32 -0.6 l-1.36 8.96 l-4.08 0 l3.36 -21.92 l12.24 23.04 l4.36 -8.28 l-0.32 -2.12 l-0.04 -0.28 l-4 7.6 z M6.48 25.240000000000002 l7.84 14.76 l1.64 0 l-10.24 -19.24 l-2.6 16.72 l1.44 0 z M33.4 11.96 l4.12 0 l0 25.4 l-1.48 0 l0 -23.96 l-1.2 0 l0 25.16 l13.16 0 l0 -3.84 l-6.52 0 l0 -1.44 l7.96 0 l0 6.72 l-16.04 0 l0 -28.04 z M38.839999999999996 11.96 l1.44 0 l0 23.92 l6.44 0 l0 1.48 l-7.88 0 l0 -25.4 z"/></g>
			</g>
		</svg>
	